<svg width="207" height="54" viewBox="0 0 207 54" fill="none" xmlns="http://www.w3.org/2000/svg">
<rect width="207" height="54" fill="#F5F5F5"/>
<g id="Home">
<path id="Rectangle 1" d="M-32 -2947H1248V116H-32V-2947Z" fill="#1C1C1C"/>
<g id="Frame 3">
<g id="Clip path group">
<mask id="mask0_0_1" style="mask-type:luminance" maskUnits="userSpaceOnUse" x="0" y="0" width="70" height="54">
<g id="clip0_101_37">
<path id="Vector" d="M69.1432 0H0V54H69.1432V0Z" fill="white"/>
</g>
</mask>
<g mask="url(#mask0_0_1)">
<g id="Group">
<path id="Vector_2" d="M69.0478 34.8775C68.9681 32.4147 68.908 29.9521 68.7963 27.4913C68.705 25.4537 68.5915 23.416 68.4165 21.3882C68.2202 19.1107 67.8052 16.8898 67.0221 14.7703C66.2274 12.6157 65.0012 10.9505 63.2199 9.86046C62.097 9.17218 60.9074 9.02985 59.6897 9.33012C58.6599 9.58358 57.7771 10.2134 57.0006 11.0401C56.0625 12.0404 55.331 13.2396 54.7277 14.5324C53.7634 16.5973 52.8467 18.6915 51.9171 20.7779C51.259 22.2539 50.5925 23.7241 49.7578 25.0774C49.2814 25.8495 48.7516 26.5651 48.0784 27.1208C47.2636 27.7916 46.3874 27.9632 45.436 27.6356C44.3681 27.2671 43.4568 26.569 42.587 25.7773C41.2475 24.5567 40.0829 23.1177 38.8583 21.7509C37.5888 20.3333 36.3525 18.8728 34.9496 17.6308C34.2682 17.0282 33.5234 16.5544 32.6887 16.3438C31.5991 16.0709 30.5945 16.3926 29.6564 17.0711C28.6668 17.7868 27.8637 18.7539 27.064 19.723C26.4042 20.5224 25.7761 21.3609 25.1063 22.1486C23.7068 23.7943 22.1523 25.1924 20.3196 26.1147C19.3982 26.5768 18.4336 26.8576 17.4273 26.918C15.9894 27.0038 14.6882 26.5027 13.4553 25.676C12.2124 24.8434 11.0811 23.8275 9.94478 22.8155C9.25505 22.2013 8.53197 21.6436 7.75724 21.1854C7.28406 20.9046 6.79253 20.6882 6.26107 20.6375C5.49298 20.5634 4.85654 20.93 4.30672 21.5227C3.6003 22.2832 3.12546 23.2347 2.70726 24.2311C1.76259 26.4793 1.23277 28.8796 0.794583 31.315C0.451367 33.2239 0.203117 35.1524 0.0531684 37.0944C0.0281769 37.4162 0.0115159 37.7379 -0.003479 38.0597V42.987C0.0748279 44.1764 0.239771 45.3503 0.546332 46.4968C0.936203 47.9573 1.47935 49.33 2.36905 50.4785C3.35205 51.7497 4.59163 52.5162 5.96616 53.0309C7.5023 53.6061 9.08675 53.8087 10.6862 53.9043C12.8955 54.0371 15.1031 53.9415 17.3073 53.7973C19.4899 53.6546 21.6691 53.4267 23.8517 53.2533C25.2113 53.1458 26.5741 53.072 27.9354 52.9823C30.7994 52.7931 33.6651 52.754 36.5308 52.7951C38.7317 52.8263 40.9343 52.8847 43.1335 52.9823C45.3327 53.0814 47.5321 53.2261 49.7279 53.3856C51.4692 53.5124 53.2051 53.7269 54.9464 53.8379C56.404 53.9315 57.8652 53.9296 59.3247 53.9806C60.3927 54.0173 61.4555 53.994 62.5138 53.8126C63.4131 53.6586 64.2849 53.3816 65.1094 52.914C66.6405 52.044 67.6218 50.6148 68.1801 48.7567C68.6814 47.0895 68.8947 45.3561 69.0149 43.6012C69.2148 40.692 69.1413 37.7828 69.0465 34.8716L69.0478 34.8775Z" fill="#F1F1F1"/>
<path id="Vector_3" d="M15.0782 22.0336C19.909 22.0336 23.8252 17.4503 23.8252 11.7967C23.8252 6.14304 19.909 1.55981 15.0782 1.55981C10.2474 1.55981 6.33115 6.14304 6.33115 11.7967C6.33115 17.4503 10.2474 22.0336 15.0782 22.0336Z" fill="#EA6D18"/>
<path id="Vector_4" d="M31.0728 12.6742C34.0633 12.6742 36.4876 9.83702 36.4876 6.33712C36.4876 2.83722 34.0633 0 31.0728 0C28.0822 0 25.6579 2.83722 25.6579 6.33712C25.6579 9.83702 28.0822 12.6742 31.0728 12.6742Z" fill="#267A7A"/>
<path id="Vector_5" d="M43.2353 10.9194C45.4895 10.9194 47.3172 8.78056 47.3172 6.14219C47.3172 3.50382 45.4895 1.36499 43.2353 1.36499C40.9809 1.36499 39.1533 3.50382 39.1533 6.14219C39.1533 8.78056 40.9809 10.9194 43.2353 10.9194Z" fill="#D94E4E"/>
<path id="Vector_6" d="M52.9822 12.0893C54.5462 12.0893 55.8142 10.6052 55.8142 8.77452C55.8142 6.94377 54.5462 5.45972 52.9822 5.45972C51.4176 5.45972 50.1497 6.94377 50.1497 8.77452C50.1497 10.6052 51.4176 12.0893 52.9822 12.0893Z" fill="#4B4BEB"/>
</g>
</g>
</g>
<path id="Vector_7" d="M78.3432 52C77.4424 52 76.6349 51.7727 75.9203 51.3175C75.2057 50.8623 74.6442 50.2304 74.2359 49.4203C73.8281 48.6101 73.6237 47.6762 73.6237 46.6188C73.6237 45.5477 73.8281 44.6099 74.2359 43.8075C74.6442 43.0051 75.2057 42.3793 75.9203 41.93C76.6349 41.4808 77.4424 41.2571 78.3432 41.2571C79.1721 41.2571 79.9129 41.4651 80.5677 41.8791C81.2225 42.2949 81.745 42.8992 82.1338 43.6957C82.5244 44.4922 82.7197 45.4653 82.7197 46.6168C82.7197 47.7547 82.5281 48.7258 82.1429 49.5282C81.7591 50.3304 81.2384 50.9447 80.5854 51.3665C79.9306 51.7904 79.1829 52 78.3432 52ZM78.433 50.7345C79.1054 50.7345 79.709 50.5643 80.2437 50.2228C80.7789 49.8813 81.1994 49.3987 81.5058 48.7768C81.8121 48.1549 81.9648 47.4349 81.9648 46.6188C81.9648 45.7889 81.8121 45.0651 81.5058 44.451C81.1994 43.835 80.7789 43.3563 80.2437 43.015C79.709 42.6736 79.1054 42.5029 78.433 42.5029C77.7732 42.5029 77.1787 42.6736 76.6507 43.015C76.1224 43.3563 75.7019 43.835 75.3887 44.451C75.0756 45.067 74.9206 45.7889 74.9206 46.6188C74.9206 47.4349 75.0774 48.1549 75.3887 48.7768C75.7 49.3987 76.121 49.8813 76.6507 50.2228C77.1787 50.5643 77.7732 50.7345 78.433 50.7345ZM82.0001 51.9V48.7278L82.127 46.5992L81.9476 44.4706V37H83.2268V51.9H82.0001Z" fill="#F1F1F1"/>
<path id="Vector_8" d="M92.0961 52C91.1839 52 90.3841 51.7625 89.695 51.2907C89.0064 50.8184 88.467 50.1676 88.0778 49.3377C87.6886 48.508 87.4948 47.5597 87.4948 46.4888C87.4948 45.418 87.6806 44.4737 88.0535 43.652C88.4263 42.8303 88.9363 42.1814 89.5877 41.7092C90.2377 41.2371 90.9687 41 91.7799 41C92.6023 41 93.3337 41.229 93.9721 41.6892C94.6108 42.1492 95.1141 42.7921 95.4802 43.6219C95.8468 44.4516 96.0309 45.408 96.0309 46.4909C96.0309 46.5592 96.0276 46.6315 96.0225 46.7078C96.0162 46.7842 96.0146 46.8625 96.0146 46.9449H88.3953V45.856H95.3809L94.9136 46.2879C94.9136 45.5064 94.7769 44.8112 94.5047 44.2005C94.2329 43.5897 93.863 43.1136 93.3958 42.772C92.9282 42.4285 92.3893 42.2577 91.7782 42.2577C91.1772 42.2577 90.6383 42.4285 90.161 42.772C89.6837 43.1156 89.3109 43.5937 89.0437 44.2125C88.7765 44.8294 88.6432 45.5365 88.6432 46.3301V46.5571C88.6432 47.3788 88.7895 48.1021 89.0844 48.7269C89.3792 49.3518 89.7898 49.838 90.3174 50.1877C90.845 50.5369 91.4477 50.7118 92.1267 50.7118C92.661 50.7118 93.158 50.5954 93.6189 50.3626C94.0799 50.1293 94.477 49.7739 94.8109 49.2935L95.4773 50.24C95.0877 50.8163 94.6024 51.2545 94.0178 51.5556C93.4378 51.8489 92.7961 52 92.0961 52Z" fill="#F1F1F1"/>
<path id="Vector_9" d="M111.318 35C112.389 35 113.539 35.2221 114.774 35.6664L114.235 37.4787C113.059 37.0734 112.043 36.8707 111.181 36.8707C110.214 36.8707 109.397 37.1143 108.729 37.6015C108.06 38.0886 107.725 38.7181 107.725 39.4897C107.725 39.9184 107.833 40.3004 108.048 40.6356C108.264 40.9707 108.548 41.2435 108.9 41.454C109.253 41.6644 109.654 41.873 110.105 42.0795C110.556 42.286 111.014 42.4751 111.481 42.6466C111.948 42.818 112.407 43.0363 112.857 43.3013C113.307 43.5664 113.709 43.8567 114.062 44.1724C114.414 44.488 114.698 44.8992 114.914 45.4059C115.129 45.9125 115.237 46.4854 115.237 47.1246C115.237 47.5689 115.178 48.0113 115.061 48.4516C114.943 48.8921 114.747 49.3286 114.473 49.761C114.199 50.1936 113.859 50.5739 113.455 50.9011C113.05 51.2282 112.539 51.4937 111.922 51.6964C111.305 51.8986 110.618 52 109.862 52C109.105 52 108.407 51.9067 107.773 51.7195C107.136 51.5323 106.423 51.2518 105.634 50.8775L106.202 48.9486C107.834 49.6737 109.122 50.036 110.069 50.036C111.062 50.036 111.868 49.7981 112.492 49.3227C113.115 48.8472 113.427 48.212 113.427 47.4169C113.427 46.8869 113.288 46.4289 113.011 46.0431C112.733 45.6573 112.374 45.3455 111.933 45.1077C111.492 44.87 111.004 44.6479 110.469 44.4413C109.934 44.2347 109.4 44.0126 108.868 43.7749C108.336 43.5371 107.849 43.2623 107.409 42.9506C106.968 42.6388 106.609 42.2178 106.331 41.6878C106.054 41.1578 105.915 40.5342 105.915 39.8171C105.915 39.178 106.044 38.5661 106.302 37.9814C106.56 37.3968 106.917 36.8844 107.374 36.444C107.831 36.0036 108.403 35.6528 109.088 35.3917C109.77 35.1306 110.515 35 111.318 35Z" fill="#F1F1F1"/>
<path id="Vector_10" d="M139.988 36.6301C139.575 36.6301 139.217 36.6956 138.915 36.8265C138.614 36.9574 138.387 37.1081 138.237 37.2787C138.086 37.4492 137.966 37.6555 137.879 37.8974C137.791 38.1393 137.738 38.3377 137.721 38.4924C137.703 38.6471 137.695 38.8077 137.695 38.9743V40.2475H141.176V41.7825H137.695V52H135.948V41.7825H134.443V40.2475H135.948V39.0576C135.948 38.0263 136.085 37.241 136.358 36.7015C136.632 36.1542 137.035 35.7337 137.568 35.4403C138.102 35.1467 138.719 35 139.42 35C140.171 35 141.002 35.1547 141.912 35.4641L141.649 36.9158C140.997 36.7254 140.442 36.6301 139.988 36.6301Z" fill="#F1F1F1"/>
<path id="Vector_11" d="M151.515 51.5701C150.541 51.8564 149.781 52 149.238 52C148.694 52 148.233 51.8992 147.857 51.6977C147.48 51.4962 147.194 51.2094 146.999 50.8378C146.804 50.4658 146.665 50.0647 146.581 49.6348C146.497 49.2048 146.455 48.7109 146.455 48.1531V41.7862H145.113V40.287H146.455V37H148.109V40.287H151.142V41.7862H148.109V48.1298C148.109 49.7181 148.653 50.5101 149.742 50.5101C149.937 50.5101 150.452 50.4288 151.285 50.2662L151.515 51.5701Z" fill="#F1F1F1"/>
<path id="Vector_12" d="M154.716 40H156.507L159.248 50.0703L161.844 40H163.491L166.191 50.0578L168.931 40H170.722L167.03 52H165.342L162.653 42.2704L159.994 52H158.306L154.716 40Z" fill="#F1F1F1"/>
<path id="Vector_13" d="M178.733 40C179.448 40 180.054 40.0993 180.552 40.298C181.049 40.4968 181.433 40.787 181.703 41.1688C181.973 41.5507 182.166 41.9754 182.283 42.4429C182.401 42.9104 182.459 43.4481 182.459 44.0559V51.7662H181.327L180.957 50.7143C180.169 51.5716 179.266 52 178.246 52C177.336 52 176.565 51.6709 175.936 51.0128C175.305 50.3541 174.99 49.5846 174.99 48.706C174.99 48.2384 175.061 47.8177 175.204 47.4436C175.347 47.0696 175.554 46.7579 175.824 46.5085C176.094 46.2592 176.401 46.0469 176.746 45.8715C177.09 45.6962 177.492 45.5618 177.951 45.4683C178.409 45.3748 178.869 45.3085 179.331 45.2696C179.793 45.2306 180.3 45.2111 180.853 45.2111V44.2994C180.853 44.0345 180.844 43.8046 180.828 43.6098C180.812 43.415 180.758 43.1812 180.667 42.9085C180.576 42.6358 180.452 42.4117 180.296 42.2364C180.141 42.0611 179.906 41.9091 179.594 41.7805C179.282 41.652 178.911 41.5877 178.482 41.5877C177.819 41.5877 176.96 41.763 175.908 42.1137L175.606 40.711C176.669 40.2377 177.711 40 178.733 40ZM180.849 46.6585H180.254C179.884 46.6585 179.562 46.6664 179.289 46.682C179.015 46.6975 178.695 46.7423 178.328 46.8163C177.96 46.8904 177.659 46.9936 177.425 47.1261C177.191 47.2585 176.991 47.4514 176.825 47.7047C176.659 47.9579 176.576 48.2599 176.576 48.6105C176.576 49.1015 176.783 49.5378 177.196 49.9197C177.609 50.3014 178.102 50.4926 178.674 50.4926C179.513 50.4926 180.238 50.0988 180.849 49.3119V46.6585Z" fill="#F1F1F1"/>
<path id="Vector_14" d="M190.392 41.1086C191.265 40.3695 192.229 40 193.283 40C194.01 40 194.67 40.155 195.263 40.4649L194.739 42.0265C194.193 41.7881 193.627 41.6689 193.04 41.6689C192.166 41.6689 191.345 41.943 190.578 42.4913V52H188.861V40.2285H190.067L190.392 41.1086Z" fill="#F1F1F1"/>
<path id="Vector_15" d="M203.277 40C203.764 40 204.202 40.0681 204.591 40.2045C204.98 40.3408 205.303 40.5141 205.56 40.7244C205.817 40.9347 206.038 41.2094 206.224 41.5482C206.41 41.887 206.552 42.2142 206.65 42.5297C206.748 42.8452 206.824 43.2249 206.879 43.669C206.933 44.113 206.966 44.4986 206.98 44.8257C206.993 45.1529 207 45.5385 207 45.9825V46.8939H200.116C200.116 47.3145 200.198 47.7333 200.364 48.15C200.53 48.5668 200.763 48.9484 201.064 49.2951C201.365 49.6418 201.761 49.9239 202.251 50.142C202.741 50.3602 203.284 50.4695 203.879 50.4695C204.582 50.4695 205.343 50.3291 206.16 50.0488L206.454 51.3576C205.365 51.7859 204.299 52 203.25 52C202.513 52 201.859 51.8872 201.289 51.661C200.717 51.4353 200.258 51.1415 199.909 50.7789C199.561 50.4169 199.275 49.9826 199.052 49.4762C198.829 48.9699 198.675 48.4655 198.591 47.963C198.506 47.4606 198.464 46.929 198.464 46.3681C198.464 45.5035 198.555 44.7128 198.738 43.9961C198.92 43.2795 199.167 42.6777 199.478 42.1908C199.789 41.704 200.153 41.2931 200.569 40.9581C200.985 40.6232 201.421 40.3798 201.877 40.2278C202.329 40.0759 202.797 40 203.277 40ZM202.922 41.6573C202.327 41.6573 201.815 41.8462 201.385 42.224C200.956 42.6017 200.643 43.0711 200.447 43.632C200.251 44.1928 200.153 44.7965 200.153 45.4431H205.386C205.387 42.9192 204.565 41.6573 202.922 41.6573Z" fill="#F1F1F1"/>
<path id="Vector_16" d="M79.0214 37H73.6237V15H88.5619V19.8398H79.0214V37ZM78.6121 24.649H87.4167V29.4581H78.6121V24.649Z" fill="#F1F1F1"/>
<path id="Vector_17" d="M155.784 37V15H161.119V37H155.784Z" fill="#F1F1F1"/>
<path id="Vector_18" d="M175.099 38C173.55 38 172.121 37.7203 170.815 37.1627C169.508 36.6052 168.368 35.8142 167.399 34.7937C166.427 33.7731 165.672 32.5558 165.131 31.1436C164.589 29.7333 164.32 28.1842 164.32 26.5C164.32 24.8158 164.589 23.2667 165.131 21.8564C165.672 20.4461 166.429 19.2288 167.399 18.2063C168.369 17.1858 169.508 16.3948 170.815 15.8373C172.121 15.2797 173.548 15 175.099 15C176.909 15 178.529 15.353 179.956 16.0591C181.384 16.7652 182.574 17.8012 183.526 19.1709L179.997 22.7728C179.363 21.9297 178.662 21.2873 177.898 20.8455C177.132 20.4037 176.292 20.1819 175.378 20.1819C174.574 20.1819 173.837 20.3304 173.165 20.6236C172.493 20.9188 171.919 21.3452 171.444 21.9027C170.968 22.4602 170.594 23.1296 170.324 23.9091C170.054 24.6885 169.917 25.5527 169.917 26.5C169.917 27.4473 170.052 28.3115 170.324 29.0909C170.594 29.8703 170.968 30.5398 171.444 31.0973C171.919 31.6548 172.493 32.0831 173.165 32.3764C173.837 32.6715 174.574 32.8181 175.378 32.8181C176.292 32.8181 177.132 32.5963 177.898 32.1545C178.664 31.7127 179.363 31.0587 179.997 30.1964L183.526 33.7982C182.574 35.168 181.384 36.2097 179.956 36.9255C178.529 37.6412 176.909 38 175.099 38Z" fill="#F1F1F1"/>
<path id="Vector_19" d="M183.526 37L192.437 15H198.061L207 37H201.059L194.082 18.0493H196.33L189.352 37H183.526ZM188.399 32.6956L189.87 28.1378H199.732L201.202 32.6956H188.399Z" fill="#F1F1F1"/>
<path id="Vector_20" d="M135.49 36.1403C135.866 35.4419 136.423 34.8969 137.148 34.5266C138.044 34.0661 139.125 33.9221 140.347 34.0603V31.1551H143.541L146.562 35.8199H148.859V37H153.649L149.142 30.0786C150.419 29.4454 151.411 28.5703 152.114 27.4459C152.861 26.2523 153.233 24.8055 153.233 23.1092C153.233 21.4551 152.859 20.014 152.114 18.7879C151.37 17.5617 150.301 16.6253 148.907 15.9748C147.517 15.3262 145.865 15 143.956 15H134.443V36.9981H135.168C135.252 36.6853 135.354 36.3917 135.49 36.1403ZM146.371 20.7701C146.986 21.3458 147.296 22.1268 147.296 23.1111C147.296 24.1377 146.988 24.9341 146.371 25.5001C145.755 26.0662 144.83 26.3483 143.597 26.3483H140.347V19.9046H143.597C144.83 19.9046 145.755 20.1925 146.371 20.7701Z" fill="#F1F1F1"/>
<path id="Vector_21" d="M103.854 32.6937L105.261 36.6776C105.522 36.2785 105.826 35.9081 106.183 35.5818C106.737 35.0733 107.427 34.6665 108.234 34.3748C108.759 34.1847 109.318 34.0658 109.902 34.0005L102.499 15H97.1063L88.5619 37H94.147L95.6664 32.6937H103.854ZM97.2789 28.1359L99.7621 21.1007L102.246 28.1359H97.2789Z" fill="#F1F1F1"/>
<path id="Vector_22" d="M106.701 9H101.04L97.0979 13H101.07L106.701 9Z" fill="#F1F1F1"/>
<path id="Vector_23" d="M131.429 27.731C130.842 26.8309 130.013 26.144 128.946 25.6718C128.831 25.622 128.706 25.5836 128.586 25.5375C129.401 25.077 130.052 24.482 130.519 23.7375C131.059 22.8777 131.329 21.8837 131.329 20.7514C131.329 19.055 130.674 17.6713 129.364 16.6024C128.053 15.5335 126.061 15 123.385 15H113.103V34.0926C113.807 34.2078 114.531 34.3805 115.278 34.6243L116.177 34.9198L115.498 37H123.964C126.697 37 128.773 36.4665 130.187 35.3976C131.602 34.3287 132.309 32.851 132.309 30.9665C132.311 29.7115 132.016 28.633 131.429 27.731ZM122.664 19.4964C123.627 19.4964 124.348 19.6691 124.829 20.0145C125.311 20.3599 125.551 20.8992 125.551 21.6322C125.551 22.3231 125.309 22.847 124.829 23.204C124.348 23.5609 123.627 23.7393 122.664 23.7393H118.736V19.4964H122.664ZM125.782 31.9587C125.281 32.3252 124.53 32.5094 123.53 32.5094H118.734V28.0457H123.53C124.531 28.0457 125.281 28.23 125.782 28.5965C126.283 28.963 126.533 29.5234 126.533 30.2776C126.533 31.0318 126.283 31.5921 125.782 31.9587Z" fill="#F1F1F1"/>
<path id="Vector_24" d="M125.373 47.2386C124.811 47.2386 124.27 46.9784 123.871 46.517C123.474 46.0557 123.249 45.4287 123.249 44.7742C123.249 44.1216 123.474 43.4947 123.871 43.0314C124.268 42.57 124.809 42.3098 125.373 42.3098C125.935 42.3098 126.476 42.57 126.875 43.0314C127.273 43.4927 127.497 44.1196 127.497 44.7742C127.497 45.4268 127.273 46.0537 126.875 46.517C126.476 46.9803 125.937 47.2386 125.373 47.2386ZM129.855 45.6791C129.879 45.4544 129.898 45.2316 129.898 45.0009C129.898 44.7702 129.879 44.5396 129.855 44.301L131.128 43.1595C131.242 43.055 131.272 42.8657 131.201 42.712L129.994 40.289C129.921 40.1352 129.76 40.0721 129.626 40.1352L128.124 40.8351C127.809 40.563 127.485 40.3245 127.105 40.149L126.882 38.2938C126.87 38.211 126.832 38.1361 126.778 38.0828C126.722 38.0296 126.653 38 126.581 38H124.168C124.017 38 123.891 38.1262 123.866 38.2938L123.643 40.149C123.263 40.3245 122.938 40.561 122.624 40.8351L121.122 40.1352C120.989 40.0721 120.826 40.1352 120.753 40.289L119.547 42.712C119.469 42.8657 119.504 43.055 119.62 43.1595L120.893 44.301C120.869 44.5396 120.85 44.7702 120.85 45.0009C120.85 45.2316 120.869 45.4564 120.893 45.6791L119.62 46.8403C119.506 46.9449 119.469 47.1341 119.547 47.2879L120.753 49.7109C120.826 49.8647 120.988 49.9221 121.122 49.8647L122.624 49.1569C122.938 49.4368 123.263 49.6753 123.643 49.851L123.866 51.7061C123.89 51.8736 124.017 52 124.168 52H126.581C126.732 52 126.858 51.8736 126.884 51.7061L127.106 49.851C127.486 49.6693 127.811 49.4388 128.126 49.1569L129.628 49.8647C129.76 49.92 129.923 49.8647 129.996 49.7109L131.203 47.2879C131.276 47.1341 131.245 46.9449 131.13 46.8403L129.855 45.6791Z" fill="#F1F1F1"/>
</g>
</g>
</svg>
